<?xml version="1.0" encoding="utf-8"?>
<!-- Generator: Adobe Illustrator 22.0.0, SVG Export Plug-In . SVG Version: 6.00 Build 0)  -->
<svg version="1.1"
	 id="svg2" inkscape:version="0.48.5 r10040" sodipodi:docname="soupir.svg" xmlns:cc="http://creativecommons.org/ns#" xmlns:dc="http://purl.org/dc/elements/1.1/" xmlns:inkscape="http://www.inkscape.org/namespaces/inkscape" xmlns:rdf="http://www.w3.org/1999/02/22-rdf-syntax-ns#" xmlns:sodipodi="http://sodipodi.sourceforge.net/DTD/sodipodi-0.dtd" xmlns:svg="http://www.w3.org/2000/svg"
	 xmlns="http://www.w3.org/2000/svg" xmlns:xlink="http://www.w3.org/1999/xlink" x="0px" y="0px" viewBox="0 0 100 200"
	 style="enable-background:new 0 0 100 200;" xml:space="preserve">
<sodipodi:namedview  bordercolor="#666666" borderopacity="1" fit-margin-bottom="0" fit-margin-left="0" fit-margin-right="0" fit-margin-top="0" gridtolerance="10" guidetolerance="10" id="namedview84" inkscape:current-layer="svg2" inkscape:cx="297.6765" inkscape:cy="-31.733147" inkscape:pageopacity="0" inkscape:pageshadow="2" inkscape:window-height="1018" inkscape:window-maximized="1" inkscape:window-width="1920" inkscape:window-x="-8" inkscape:window-y="-8" inkscape:zoom="2" objecttolerance="10" pagecolor="#ffffff" showgrid="false">
	</sodipodi:namedview>
<a id="a60" transform="translate(-16.1344,-5.0813001)">
	<path id="path62" inkscape:connector-curvature="0" d="M28.2,151.2c0-7.3,3.2-11,11.4-11c9.4,0,22.2,3.4,34,8.1l-37.7-41.2
		c-2-2.3-2.8-4.4-2.8-6.5c0-8.9,14.2-17.2,24.9-25.8c7.1-5.7,10.5-13.6,10.5-21.6c0-6.3-2.3-12.8-7.1-18l-10-11
		c-0.9-0.8-1.1-1.8-1.1-2.6c0-2.3,2.5-3.9,4.8-3.9c1.1,0,2.3,0.3,3.2,1.3l43.2,46.9c2,2.3,2.8,4.4,2.8,6.5
		c0,8.9-14.2,17.2-24.9,25.8c-7.1,5.7-10.5,13.6-10.5,21.6c0,6.3,2,12.8,6.9,18l24,25.8c0.9,0.8,1.1,1.8,1.1,2.6
		c0,2.3-2.3,4.2-4.6,4.2c-1.1,0-2.5-0.5-3.4-1.6c-5.1-5.5-18-9.9-27.7-9.9c-11.7,0-15.1,6.8-15.1,17.5c0,9.1,3.2,19.3,8,24.5
		c1.4,1.6,0,3.4-1.8,3.4c-0.5,0-1.1,0-1.8-0.5C41.6,189.8,28.2,165.3,28.2,151.2z"/>
</a>
</svg>
