<?xml version="1.0" encoding="utf-8"?>
<!-- Generator: Adobe Illustrator 22.0.0, SVG Export Plug-In . SVG Version: 6.00 Build 0)  -->
<svg version="1.1"
	 id="svg2" inkscape:version="0.91 r13725" sodipodi:docname="croche t√™te en bas.svg" xmlns:cc="http://creativecommons.org/ns#" xmlns:dc="http://purl.org/dc/elements/1.1/" xmlns:inkscape="http://www.inkscape.org/namespaces/inkscape" xmlns:rdf="http://www.w3.org/1999/02/22-rdf-syntax-ns#" xmlns:sodipodi="http://sodipodi.sourceforge.net/DTD/sodipodi-0.dtd" xmlns:svg="http://www.w3.org/2000/svg"
	 xmlns="http://www.w3.org/2000/svg" xmlns:xlink="http://www.w3.org/1999/xlink" x="0px" y="0px" viewBox="0 0 100 200"
	 style="enable-background:new 0 0 100 200;" xml:space="preserve">
<sodipodi:namedview  bordercolor="#666666" borderopacity="1" fit-margin-bottom="0" fit-margin-left="0" fit-margin-right="0" fit-margin-top="0" gridtolerance="10" guidetolerance="10" id="namedview126" inkscape:current-layer="svg2" inkscape:cx="-205.02711" inkscape:cy="-63.650461" inkscape:pageopacity="0" inkscape:pageshadow="2" inkscape:window-height="1018" inkscape:window-maximized="1" inkscape:window-width="1920" inkscape:window-x="-8" inkscape:window-y="-8" inkscape:zoom="0.63429568" objecttolerance="10" pagecolor="#ffffff" showgrid="false">
	</sodipodi:namedview>
<g>
	<path id="path68" inkscape:connector-curvature="0" d="M61,14.6c0,36,39,62,39,99c0,13-3,26-8,38c-1,1-2,2-4,2s-5-2-4-5
		c5-11,8-23,8-36c0-19-18-39-31-53h-3v-45H61z"/>
	<g id="rect70_5_">
		<path d="M57,12.6h2c1,0,2,1,2,2v150c0,1-1,2-2,2h-2c-1,0-2-1-2-2v-150C55,13.6,56,12.6,57,12.6z"/>
		<path d="M57,12.6h2c1,0,2,1,2,2v150c0,1-1,2-2,2h-2c-1,0-2-1-2-2v-150C55,13.6,56,12.6,57,12.6z"/>
		<path d="M57,12.6h2c1,0,2,1,2,2v150c0,1-1,2-2,2h-2c-1,0-2-1-2-2v-150C55,13.6,56,12.6,57,12.6z"/>
		<path d="M57,12.6h2c1,0,2,1,2,2v150c0,1-1,2-2,2h-2c-1,0-2-1-2-2v-150C55,13.6,56,12.6,57,12.6z"/>
	</g>
</g>
<a id="a72_2_" transform="translate(-94.8335,-6.3453003)">
	<path id="path74_2_" inkscape:connector-curvature="0" d="M135.9,153.7c10,0,20,5,20,17c0,13-10,22-19,28c-7,4-14,7-22,7
		c-10,0-20-5-20-17c0-13,10-22,19-28C120.9,156.7,128.9,153.7,135.9,153.7z"/>
</a>
</svg>
