<?xml version="1.0" encoding="utf-8"?>
<!-- Generator: Adobe Illustrator 22.0.0, SVG Export Plug-In . SVG Version: 6.00 Build 0)  -->
<svg version="1.1"
	 id="svg2" inkscape:version="0.48.5 r10040" sodipodi:docname="soupir.svg" xmlns:cc="http://creativecommons.org/ns#" xmlns:dc="http://purl.org/dc/elements/1.1/" xmlns:inkscape="http://www.inkscape.org/namespaces/inkscape" xmlns:rdf="http://www.w3.org/1999/02/22-rdf-syntax-ns#" xmlns:sodipodi="http://sodipodi.sourceforge.net/DTD/sodipodi-0.dtd" xmlns:svg="http://www.w3.org/2000/svg"
	 xmlns="http://www.w3.org/2000/svg" xmlns:xlink="http://www.w3.org/1999/xlink" x="0px" y="0px" viewBox="0 0 100 200"
	 style="enable-background:new 0 0 100 200;" xml:space="preserve">
<sodipodi:namedview  bordercolor="#666666" borderopacity="1" fit-margin-bottom="0" fit-margin-left="0" fit-margin-right="0" fit-margin-top="0" gridtolerance="10" guidetolerance="10" id="namedview84" inkscape:current-layer="svg2" inkscape:cx="297.6765" inkscape:cy="-31.733147" inkscape:pageopacity="0" inkscape:pageshadow="2" inkscape:window-height="1018" inkscape:window-maximized="1" inkscape:window-width="1920" inkscape:window-x="-8" inkscape:window-y="-8" inkscape:zoom="2" objecttolerance="10" pagecolor="#ffffff" showgrid="false">
	</sodipodi:namedview>
<path id="svg_19" d="M35.8,168.5l32.4-91.6C58.7,80.2,49,83,39.1,83C26.3,83,15,73.8,15,60.8c0-11.2,9.1-20.2,20.2-20.2
	c6.9,0,13.3,4.2,15.5,11c2.8,7.9,1.7,16.6,9.7,16.6c4.4,0,14.9-13.5,16.9-17.7c1.7-3.4,6.4-3.4,7.7,0l-34,118
	c-2.2,2-4.7,2.8-7.5,2.8C40.7,171.3,38,170.4,35.8,168.5z"/>
</svg>
