<svg width="1803" height="3121" xmlns="http://www.w3.org/2000/svg">
 <!-- Created with Method Draw - http://github.com/duopixel/Method-Draw/ -->

 <g>
  <title>background</title>
  <rect fill="none" id="canvas_background" height="3123" width="1805" y="-1" x="-1"/>
 </g>
 <g>
  <title>Layer 1</title>
  <metadata transform="matrix(541.8405038123055,0,0,541.8405038123055,0,0) " id="svg_9">image/svg+xml</metadata>

  <metadata transform="matrix(1284.669952131866,0,0,1284.669952131866,0,0) " id="svg_20">image/svg+xml</metadata>

  <!-- Page: 1/1 -->
  <!-- Page: 1/1 -->
  <g id="svg_22">
   <a transform="matrix(1284.669952131866,0,0,1284.669952131866,0,0) " id="svg_18">
    <path fill="currentColor" id="svg_19" d="m0.493038,2.146987l0.468,-1.304c-0.136,0.048 -0.276,0.088 -0.42,0.088c-0.184,0 -0.348,-0.132 -0.348,-0.316c0,-0.16 0.132,-0.288 0.292,-0.288c0.1,0 0.192,0.06 0.224,0.156c0.04,0.112 0.024,0.236 0.14,0.236c0.064,0 0.216,-0.192 0.244,-0.252c0.024,-0.048 0.092,-0.048 0.112,0l-0.492,1.68c-0.032,0.028 -0.068,0.04 -0.108,0.04c-0.04,0 -0.08,-0.012 -0.112,-0.04z"/>
   </a>
  </g>
 </g>
</svg>