<svg xmlns="http://www.w3.org/2000/svg" xmlns:xlink="http://www.w3.org/1999/xlink" version="1.1" x="0px" y="0px" viewBox="0 0 100 125" enable-background="new 0 0 100 100" xml:space="preserve"><g><path d="M22.5,56.8L44,47.5c-0.8-3.5-0.9-6-0.5-8.7c0.9-5.4,1.3-11,0.7-16.5c-0.6-5.5-2.7-11.1-7-14.5   C34.9,6,32,4.9,29.1,5c-4.9,0.2-8.9,3.9-11.3,8.2c-3.7,6.5-3.8,16.4-2.9,21.8c1,5.4,2.7,11.7,5.4,17.1C21,53.6,21.7,55.2,22.5,56.8   z"/><path d="M25.2,61.7c0.6,1.1,1.3,2.2,2,3.2c2.6,3.9,5,7.1,8.1,8.6c3.1,1.5,8.4,0.7,10.5-1.7   c2.9-3.2,2.3-7.4,1.6-11.2c-0.6-2.9-1.2-5.1-1.9-7.6L25.2,61.7z"/></g><g><path d="M79,76.6l-21.9-8c0.6-3.5,0.6-6,0-8.7c-1.2-5.4-1.9-10.9-1.7-16.5c0.3-5.5,2.1-11.2,6.2-14.9   c2.2-1.9,5-3.3,7.9-3.3c4.9,0,9.1,3.4,11.8,7.5c4.1,6.3,4.8,16.1,4.1,21.6c-0.7,5.4-2,11.8-4.4,17.4C80.4,73.4,79.7,75,79,76.6z"/><path d="M76.7,81.6c-0.6,1.1-1.2,2.2-1.8,3.3c-2.4,4-4.5,7.4-7.6,9.1c-3,1.7-8.3,1.2-10.6-1.1   c-3.1-3-2.8-7.2-2.3-11.1c0.4-2.9,0.9-5.2,1.5-7.7L76.7,81.6z"/></g><text x="0" y="115" fill="#000000" font-size="5px" font-weight="bold" font-family="'Helvetica Neue', Helvetica, Arial-Unicode, Arial, Sans-serif">Created by Kirby Wu</text><text x="0" y="120" fill="#000000" font-size="5px" font-weight="bold" font-family="'Helvetica Neue', Helvetica, Arial-Unicode, Arial, Sans-serif">from the Noun Project</text></svg>