<svg xmlns="http://www.w3.org/2000/svg" xmlns:xlink="http://www.w3.org/1999/xlink" version="1.1" x="0px" y="0px" viewBox="0 0 119 168.75" enable-background="new 0 0 119 135" xml:space="preserve"><line fill="#000000" stroke="#010101" stroke-width="4" stroke-linecap="round" stroke-linejoin="round" stroke-miterlimit="10" x1="93.957" y1="18.631" x2="99.336" y2="8.623"/><line fill="#000000" stroke="#010101" stroke-width="4" stroke-linecap="round" stroke-linejoin="round" stroke-miterlimit="10" x1="66.59" y1="20.123" x2="60.091" y2="10.797"/><line fill="#000000" stroke="#010101" stroke-width="4" stroke-linecap="round" stroke-linejoin="round" stroke-miterlimit="10" x1="78.555" y1="16.895" x2="78.555" y2="4"/><path fill="#000000" stroke="#010101" stroke-width="4" stroke-linecap="round" stroke-linejoin="round" stroke-miterlimit="10" d="  M107.822,54.994c-0.041,0.041-0.061,0.061-0.102,0.1l-15.729,15.73c1.629,4.939,6.059,18.66,6.059,21.689  c0,3.682-1.59,6.99-4.119,9.291l-22.041,22.039c-2.299,2.531-5.609,4.121-9.289,4.121c-3.42,0-6.53-1.381-8.792-3.6l-0.039,0.039  l-11.359-11.35l0.02-0.02c-0.281-0.201-0.541-0.43-0.791-0.68c-0.789-0.791-1.359-1.701-1.709-2.691  c2.359,0.711,5.25-0.049,7.369-2.17c2.9-2.9,3.26-7.25,0.801-9.709l-0.471-0.48c2.721,2.721,7.281,2.58,10.18-0.32  c2.91-2.91,3.051-7.471,0.33-10.189l-0.318-0.32c2.898,2.891,7.61,2.891,10.5,0c2.908-2.91,2.908-7.619,0.01-10.52l-51.09-51.09  v-0.01c-0.041-0.031-0.07-0.061-0.102-0.092c-2.91-2.908-2.91-7.619-0.01-10.52c2.91-2.91,7.621-2.91,10.52,0  c0.041,0.041,0.07,0.061,0.092,0.111l0.01-0.012L48.22,34.814c0.041,0.041,0.07,0.061,0.09,0.109l0.012-0.01l25.799,25.801  c2.17,1.141,4.791,1.141,6.961,0l16.229-16.23c2.9-2.91,7.611-2.91,10.512-0.01C110.73,47.385,110.73,52.094,107.822,54.994z"/><path fill="#000000" stroke="#010101" stroke-width="4" stroke-linecap="round" stroke-linejoin="round" stroke-miterlimit="10" d="  M47.3,107.494c-2.119,2.121-5.01,2.881-7.369,2.17c-0.871-0.25-1.67-0.699-2.34-1.369L11.71,82.424l0.01-0.01  c-0.039-0.02-0.059-0.039-0.09-0.07c-2.459-2.469-2.1-6.818,0.791-9.719c2.91-2.9,7.26-3.26,9.729-0.801l0.041,0.041  c0.01,0.01,0.02,0.029,0.029,0.049l0.01-0.01l24.67,24.67v0.01l0.73,0.721l0.471,0.48C50.56,100.244,50.201,104.594,47.3,107.494z"/><path fill="#000000" stroke="#010101" stroke-width="4" stroke-linecap="round" stroke-linejoin="round" stroke-miterlimit="10" d="  M57.81,96.984c-2.898,2.9-7.459,3.041-10.18,0.32l-0.73-0.721v-0.01l-24.75-24.75l-3.189-3.189c-0.039-0.041-0.061-0.061-0.09-0.09  c-2.73-2.73-2.59-7.291,0.311-10.189c2.91-2.91,7.469-3.051,10.199-0.32l28.031,28.029l0.41,0.41l0.318,0.32  C60.861,89.514,60.72,94.074,57.81,96.984z"/><path fill="#000000" stroke="#010101" stroke-width="4" stroke-linecap="round" stroke-linejoin="round" stroke-miterlimit="10" d="  M68.322,86.475c-2.891,2.891-7.602,2.891-10.5,0l-0.41-0.41L27.291,55.945l0.01-0.012c-0.039-0.029-0.07-0.049-0.109-0.09  c-2.9-2.91-2.9-7.609-0.01-10.51c2.91-2.91,7.619-2.91,10.529,0l30.622,30.621C71.23,78.855,71.23,83.564,68.322,86.475z"/><text x="0" y="150" fill="#000000" font-size="5px" font-weight="bold" font-family="'Helvetica Neue', Helvetica, Arial-Unicode, Arial, Sans-serif">Created by Adèle Foucart</text><text x="0" y="155" fill="#000000" font-size="5px" font-weight="bold" font-family="'Helvetica Neue', Helvetica, Arial-Unicode, Arial, Sans-serif">from the Noun Project</text></svg>